<svg width="22" height="25" viewBox="0 0 22 25" fill="none" xmlns="http://www.w3.org/2000/svg">
<path d="M10.9864 0C7.35163 0 4.39454 2.95709 4.39454 6.59181C4.39454 10.2265 7.35163 13.1836 10.9864 13.1836C14.6211 13.1836 17.5782 10.2265 17.5782 6.59181C17.5782 2.95709 14.6211 0 10.9864 0Z" fill="white"/>
<path d="M19.1878 17.4899C17.3831 15.6575 14.9907 14.6484 12.4512 14.6484H9.52151C6.98205 14.6484 4.58956 15.6575 2.78487 17.4899C0.989016 19.3134 0 21.7203 0 24.2676C0 24.6721 0.32793 25 0.732424 25H21.2403C21.6448 25 21.9727 24.6721 21.9727 24.2676C21.9727 21.7203 20.9837 19.3134 19.1878 17.4899Z" fill="white"/>
</svg>
