<svg width="30" height="30" viewBox="0 0 30 30" fill="none" xmlns="http://www.w3.org/2000/svg">
<path d="M28.6511 18L27.0451 17.125C25.3053 16.125 25.3053 13.75 27.0451 12.75L28.6511 11.875C29.9895 11.125 30.391 9.625 29.588 8.5L28.2496 6.375C27.4466 5.125 25.8406 4.75 24.6361 5.5L23.0301 6.375C21.2902 7.375 19.015 6.125 19.015 4.25V2.5C19.015 1.125 17.8105 0 16.3383 0H13.6617C12.1895 0 10.985 1.125 10.985 2.5V4.125C10.985 6 8.70977 7.25 6.96992 6.25L5.3639 5.5C4.02555 4.75 2.41953 5.25 1.75036 6.375L0.412013 8.5C-0.25716 9.75 0.144344 11.25 1.34886 12L2.95487 12.875C4.69473 13.75 4.69473 16.25 2.95487 17.125L1.34886 18C0.0105091 18.75 -0.390995 20.25 0.412013 21.375L1.75036 23.5C2.55337 24.75 4.15939 25.125 5.3639 24.375L6.96992 23.625C8.70977 22.625 10.985 23.875 10.985 25.75V27.5C10.985 28.875 12.1895 30 13.6617 30H16.3383C17.8105 30 19.015 28.875 19.015 27.5V25.875C19.015 24 21.2902 22.75 23.0301 23.75L24.6361 24.625C25.9744 25.375 27.5805 24.875 28.2496 23.75L29.588 21.625C30.2572 20.25 29.8557 18.75 28.6511 18ZM15 20C12.0556 20 9.64661 17.75 9.64661 15C9.64661 12.25 12.0556 10 15 10C17.9444 10 20.3534 12.25 20.3534 15C20.3534 17.75 17.9444 20 15 20Z" fill="white"/>
</svg>
