<svg width="44" height="44" viewBox="0 0 44 44" fill="none" xmlns="http://www.w3.org/2000/svg">
<circle cx="22" cy="22" r="22" fill="#5FA6BC"/>
<path d="M32.3424 18.187C31.9802 18.187 31.6862 18.481 31.6862 18.8432V26.2741L26.4366 28.3739V21.468C26.4366 21.1058 26.1426 20.8118 25.7804 20.8118C25.4181 20.8118 25.1242 21.1058 25.1242 21.468V28.3726L19.8745 26.2728V15.8758L22.9154 17.0924C23.2474 17.2263 23.6333 17.0636 23.7684 16.7263C23.9036 16.3903 23.7396 16.0084 23.4023 15.8732L19.4742 14.3009C19.4742 14.3009 19.4742 14.3009 19.4729 14.3009L19.4624 14.297C19.3062 14.234 19.1317 14.234 18.9755 14.297L18.9637 14.3009C18.9637 14.3009 18.9637 14.3009 18.9624 14.3009L12.4121 16.9218C12.1641 17.0216 12 17.2617 12 17.5308V29.3425C12 29.5603 12.1089 29.7638 12.2887 29.8858C12.399 29.9606 12.5263 29.9987 12.6562 29.9987C12.7389 29.9987 12.8216 29.9829 12.9003 29.9514L19.2183 27.425L25.5244 29.9475C25.5244 29.9475 25.5244 29.9475 25.5258 29.9475L25.5376 29.9528C25.6938 30.0157 25.8683 30.0157 26.0245 29.9528L26.0363 29.9475C26.0363 29.9475 26.0363 29.9475 26.0376 29.9475L32.5879 27.3279C32.8346 27.2269 32.9987 26.9867 32.9987 26.7177V18.8432C32.9987 18.481 32.7047 18.187 32.3424 18.187ZM18.5621 26.2728L13.3124 28.3726V17.9744L18.5621 15.8745V26.2728Z" fill="white"/>
<path d="M28.4054 11.625C27.32 11.625 26.4368 12.5083 26.4368 13.5937C26.4368 14.679 27.32 15.5623 28.4054 15.5623C29.4908 15.5623 30.374 14.679 30.374 13.5937C30.374 12.5083 29.4908 11.625 28.4054 11.625ZM28.4054 14.2499C28.0432 14.2499 27.7492 13.9559 27.7492 13.5937C27.7492 13.2314 28.0432 12.9374 28.4054 12.9374C28.7676 12.9374 29.0616 13.2314 29.0616 13.5937C29.0616 13.9559 28.7676 14.2499 28.4054 14.2499Z" fill="white"/>
<path d="M28.4055 9.00012C25.8725 9.00012 23.812 11.0606 23.812 13.5935C23.812 15.9506 27.4973 20.1254 27.9173 20.5939C28.0419 20.7317 28.2191 20.8118 28.4055 20.8118C28.5918 20.8118 28.769 20.7317 28.8937 20.5939C29.3137 20.1254 32.9989 15.9506 32.9989 13.5935C32.9989 11.0606 30.9384 9.00012 28.4055 9.00012ZM28.4055 19.1542C26.9723 17.4546 25.1244 14.8456 25.1244 13.5935C25.1244 11.785 26.597 10.3125 28.4055 10.3125C30.214 10.3125 31.6865 11.785 31.6865 13.5935C31.6865 14.8443 29.8386 17.4546 28.4055 19.1542Z" fill="white"/>
</svg>
