<svg width="44" height="44" viewBox="0 0 44 44" fill="none" xmlns="http://www.w3.org/2000/svg">
<ellipse cx="22" cy="22" rx="22" ry="22" fill="#E28743"/>
<path d="M32.1865 26.6177C30.6115 25.2865 29.7083 23.3407 29.7083 21.2792V18.375C29.7083 14.7094 26.9854 11.675 23.4583 11.1667V10.0417C23.4583 9.46563 22.9917 9 22.4167 9C21.8417 9 21.375 9.46563 21.375 10.0417V11.1667C17.8469 11.675 15.125 14.7094 15.125 18.375V21.2792C15.125 23.3407 14.2219 25.2865 12.6375 26.6261C12.2323 26.9729 12 27.4771 12 28.0105C12 29.0157 12.8177 29.8334 13.8229 29.8334H31.0104C32.0156 29.8334 32.8333 29.0157 32.8333 28.0105C32.8333 27.4771 32.6011 26.973 32.1865 26.6177Z" fill="white"/>
<path d="M22.4167 34C24.3031 34 25.8812 32.6552 26.2437 30.875H18.5896C18.9521 32.6552 20.5302 34 22.4167 34Z" fill="white"/>
</svg>
