<svg width="21" height="21" viewBox="0 0 21 21" fill="none" xmlns="http://www.w3.org/2000/svg">
<path d="M20.3424 9.187C19.9802 9.187 19.6862 9.48098 19.6862 9.84321V17.2741L14.4366 19.374V12.468C14.4366 12.1058 14.1426 11.8118 13.7804 11.8118C13.4181 11.8118 13.1242 12.1058 13.1242 12.468V19.3727L7.87449 17.2728V6.87584L10.9154 8.09245C11.2474 8.22632 11.6333 8.06358 11.7684 7.72628C11.9036 7.39031 11.7396 7.00839 11.4023 6.87321L7.47421 5.30094C7.47421 5.30094 7.47421 5.30094 7.47289 5.30094L7.4624 5.297C7.30622 5.23401 7.13167 5.23401 6.97549 5.297L6.96368 5.30094C6.96368 5.30094 6.96368 5.30094 6.96237 5.30094L0.412099 7.92183C0.164052 8.02158 0 8.26175 0 8.5308V20.3425C0 20.5604 0.108931 20.7638 0.288731 20.8859C0.398974 20.9607 0.526279 20.9987 0.656208 20.9987C0.73889 20.9987 0.821572 20.983 0.900317 20.9515L7.21829 18.4251L13.5244 20.9476C13.5244 20.9476 13.5244 20.9476 13.5258 20.9476L13.5376 20.9528C13.6937 21.0158 13.8683 21.0158 14.0245 20.9528L14.0363 20.9476C14.0363 20.9476 14.0363 20.9476 14.0376 20.9476L20.5879 18.328C20.8346 18.2269 20.9987 17.9868 20.9987 17.7177V9.84321C20.9987 9.48098 20.7047 9.187 20.3424 9.187ZM6.56208 17.2728L1.31242 19.3727V8.97439L6.56208 6.87453V17.2728Z" fill="white"/>
<path d="M16.4054 2.62488C15.32 2.62488 14.4368 3.50813 14.4368 4.5935C14.4368 5.67887 15.32 6.56213 16.4054 6.56213C17.4908 6.56213 18.374 5.67887 18.374 4.5935C18.374 3.50813 17.4908 2.62488 16.4054 2.62488ZM16.4054 5.24971C16.0432 5.24971 15.7492 4.95573 15.7492 4.5935C15.7492 4.23127 16.0432 3.93729 16.4054 3.93729C16.7676 3.93729 17.0616 4.23127 17.0616 4.5935C17.0616 4.95573 16.7676 5.24971 16.4054 5.24971Z" fill="white"/>
<path d="M16.4055 0C13.8725 0 11.812 2.06049 11.812 4.59346C11.812 6.95055 15.4973 11.1253 15.9172 11.5939C16.0419 11.7317 16.2191 11.8117 16.4055 11.8117C16.5918 11.8117 16.769 11.7317 16.8937 11.5939C17.3137 11.1253 20.9989 6.95055 20.9989 4.59346C20.9989 2.06049 18.9384 0 16.4055 0ZM16.4055 10.1542C14.9723 8.45458 13.1244 5.8455 13.1244 4.59346C13.1244 2.78495 14.597 1.31242 16.4055 1.31242C18.214 1.31242 19.6865 2.78495 19.6865 4.59346C19.6865 5.84419 17.8386 8.45458 16.4055 10.1542Z" fill="white"/>
</svg>
