<svg width="42" height="38" viewBox="0 0 42 38" fill="none" xmlns="http://www.w3.org/2000/svg">
<path d="M17.3111 31.5879C16.2722 29.2214 15.6951 26.682 15.6371 24.1426C13.9637 26.74 12.6934 29.3948 11.828 31.2996C11.7706 31.415 11.7706 31.473 11.7126 31.5885C11.4243 32.339 11.1354 32.9161 10.962 33.4353C10.7312 34.0124 11.0195 34.705 11.6546 34.9359C12.1163 35.1093 12.7509 35.3401 13.5014 35.6284C13.6174 35.6859 13.6749 35.6859 13.7903 35.7433C15.8111 36.4359 18.5808 37.1864 21.5825 37.7056C19.7931 35.9742 18.3499 33.8965 17.3111 31.5879Z" fill="#E28743"/>
<path d="M21.3512 12.5988C15.4643 0.536306 2.30506 0.940032 0.227367 6.36567C-1.38862 10.5211 5.59502 20.3909 21.6405 13.2339C21.5825 13.1764 21.4097 12.7147 21.3512 12.5988Z" fill="#E28743"/>
<path d="M24.122 11.7912C20.8325 3.65277 26.6039 -1.02232 29.7205 0.189945C32.087 1.11337 33.3567 8.097 24.2954 12.137C24.2954 12.0795 24.1794 11.8487 24.122 11.7912Z" fill="#E28743"/>
<path d="M40.9751 20.968C39.59 17.9089 37.108 15.6583 34.1649 14.6195C33.8766 14.504 33.5883 14.4461 33.2415 14.4461C31.7409 14.4461 30.2404 15.7158 30.1249 17.2743C29.8941 19.9291 30.4132 22.5845 31.5675 25.1814C32.7223 27.7213 34.3378 29.8564 36.358 31.4724C36.8777 31.8767 37.5703 32.0496 38.2049 32.0496C39.4171 32.0496 40.5714 31.415 41.0331 30.3182C42.3028 27.4899 42.3608 24.0845 40.9751 20.968Z" fill="#E28743"/>
<path d="M34.1066 34.5314C31.5666 32.5691 29.5469 29.9723 28.1618 26.7977C26.7187 23.5658 26.1415 20.2758 26.4304 17.0438C26.4878 16.1204 26.7766 15.2545 27.1809 14.5044C27.1235 14.5044 27.008 14.5619 26.9495 14.5619C26.8341 14.6193 26.6612 14.6193 26.5458 14.6773C25.6798 14.9082 24.8144 15.3119 24.0638 15.7162C23.6601 15.947 23.3138 16.1779 22.9096 16.4087C20.9473 17.7359 19.3313 20.0444 19.1004 22.4689C18.8696 25.0658 19.3313 27.7212 20.4276 30.2606C21.5244 32.7425 23.1404 34.7628 25.1032 36.3208C26.3149 37.3022 28.4506 37.8793 30.24 37.8793C32.2023 37.8793 34.28 37.1288 35.954 36.0899C35.954 36.0899 36.0114 36.0899 36.0114 36.0325C36.1268 35.9745 36.2423 35.8591 36.3577 35.8016C36.4157 35.7431 36.4736 35.6857 36.5311 35.6857C35.6077 35.4548 34.7997 35.0505 34.1066 34.5314Z" fill="#E28743"/>
</svg>
