<svg width="60" height="60" viewBox="0 0 60 60" fill="none" xmlns="http://www.w3.org/2000/svg">
<path d="M30.0633 60C22.09 60 14.4433 56.8393 8.80535 51.2133C3.16738 45.5872 0 37.9566 0 30.0002C0 22.0438 3.16738 14.4132 8.80535 8.78716C14.4433 3.16111 22.09 0.000424495 30.0633 0.000424495C34.8139 -0.0241423 39.5091 1.0179 43.8013 3.0494C48.0936 5.08091 51.873 8.04983 54.8596 11.7363C61.4976 20.2803 60.7761 27.0002 57.89 30.4322C56.9455 31.6644 55.5976 32.5268 54.0812 32.8689C52.5649 33.211 50.9763 33.0111 49.5925 32.3042C45.6241 30.2162 42.3773 31.4162 41.0304 33.6962C39.6836 35.9762 40.6456 39.8641 45.8406 42.7201C47.1008 43.5056 48.0664 44.6837 48.5881 46.0719C49.1098 47.4602 49.1585 48.9814 48.7267 50.4001C47.5241 55.2 41.9925 60 30.0633 60ZM30.0633 2.40041C22.7279 2.40041 15.6929 5.30824 10.506 10.4842C5.31906 15.6602 2.40507 22.6803 2.40507 30.0002C2.40507 37.3201 5.31906 44.3403 10.506 49.5162C15.6929 54.6922 22.7279 57.6 30.0633 57.6C40.6216 57.6 45.4317 53.616 46.4178 49.8961C46.7296 48.9614 46.7137 47.9487 46.3728 47.0242C46.032 46.0997 45.3863 45.3183 44.5418 44.8081C38.0722 41.1601 37.0861 35.9042 38.914 32.5442C40.7418 29.1842 45.3596 27.3602 50.6988 30.1442C51.6059 30.5779 52.6366 30.6809 53.6119 30.4354C54.5873 30.1899 55.4456 29.6114 56.0381 28.8002C58.2267 26.4002 58.7317 20.6163 52.8393 13.2003C50.0727 9.83929 46.597 7.12874 42.6601 5.26195C38.7232 3.39515 34.4221 2.41808 30.0633 2.40041ZM27.6583 52.8C26.4661 52.8143 25.2966 52.4746 24.2984 51.8241C23.3002 51.1735 22.5183 50.2415 22.0521 49.1465C21.586 48.0515 21.4565 46.8429 21.6803 45.6743C21.9041 44.5057 22.471 43.4299 23.3089 42.5836C24.1469 41.7373 25.2181 41.1586 26.3863 40.9212C27.5546 40.6838 28.7672 40.7984 29.8701 41.2503C30.973 41.7022 31.9163 42.4711 32.5802 43.4593C33.2442 44.4475 33.5987 45.6104 33.5988 46.8001C33.5988 48.3914 32.9653 49.9175 31.8377 51.0427C30.7101 52.1679 29.1808 52.8 27.5861 52.8H27.6583ZM27.6583 43.2001C26.9419 43.1858 26.2374 43.3847 25.6347 43.7715C25.032 44.1583 24.5584 44.7154 24.2743 45.3718C23.9901 46.0282 23.9083 46.7542 24.0393 47.4572C24.1702 48.1602 24.508 48.8084 25.0095 49.3191C25.5111 49.8298 26.1537 50.1799 26.8554 50.3247C27.5571 50.4696 28.2861 50.4026 28.9495 50.1324C29.6129 49.8621 30.1807 49.4009 30.5804 48.8074C30.9801 48.2139 31.1936 47.5151 31.1937 46.8001C31.1937 45.8453 30.8136 44.9297 30.1371 44.2545C29.4605 43.5794 28.5429 43.2001 27.5861 43.2001H27.6583ZM15.6329 40.8001C14.4408 40.8144 13.2713 40.4747 12.273 39.8242C11.2748 39.1736 10.4929 38.2416 10.0268 37.1466C9.56061 36.0516 9.4312 34.843 9.65499 33.6744C9.87877 32.5058 10.4457 31.43 11.2836 30.5837C12.1215 29.7374 13.1927 29.1587 14.361 28.9213C15.5293 28.6839 16.7419 28.7985 17.8448 29.2504C18.9476 29.7023 19.891 30.4712 20.5549 31.4594C21.2188 32.4476 21.5734 33.6104 21.5735 34.8002C21.5735 36.3915 20.94 37.9176 19.8124 39.0428C18.6848 40.168 17.1554 40.8001 15.5608 40.8001H15.6329ZM15.6329 31.2002C14.9165 31.1859 14.2121 31.3848 13.6094 31.7716C13.0067 32.1584 12.5331 32.7155 12.249 33.3719C11.9648 34.0283 11.883 34.7543 12.0139 35.4573C12.1449 36.1603 12.4827 36.8085 12.9842 37.3192C13.4857 37.8299 14.1283 38.18 14.83 38.3248C15.5317 38.4696 16.2608 38.4027 16.9242 38.1325C17.5876 37.8622 18.1553 37.401 18.555 36.8075C18.9547 36.214 19.1682 35.5152 19.1684 34.8002C19.1684 33.8454 18.7883 32.9297 18.1117 32.2546C17.4352 31.5795 16.5176 31.2002 15.5608 31.2002H15.6329ZM20.4431 24.0003C19.2509 24.0145 18.0814 23.6748 17.0832 23.0243C16.085 22.3737 15.3031 21.4417 14.8369 20.3467C14.3707 19.2517 14.2413 18.0431 14.4651 16.8745C14.6889 15.7059 15.2558 14.6301 16.0937 13.7838C16.9317 12.9375 18.0028 12.3588 19.1711 12.1214C20.3394 11.884 21.552 11.9986 22.6549 12.4505C23.7578 12.9024 24.7011 13.6713 25.365 14.6595C26.029 15.6477 26.3835 16.8106 26.3836 18.0003C26.3836 19.5916 25.7501 21.1177 24.6225 22.2429C23.4949 23.3681 21.9656 24.0003 20.3709 24.0003H20.4431ZM20.4431 14.4003C19.7267 14.386 19.0222 14.5849 18.4195 14.9717C17.8168 15.3585 17.3432 15.9156 17.0591 16.572C16.7749 17.2284 16.6931 17.9544 16.8241 18.6574C16.955 19.3604 17.2928 20.0086 17.7943 20.5193C18.2959 21.03 18.9384 21.3801 19.6402 21.5249C20.3419 21.6698 21.0709 21.6028 21.7343 21.3326C22.3977 21.0623 22.9655 20.6011 23.3652 20.0076C23.7649 19.4141 23.9784 18.7153 23.9785 18.0003C23.9785 17.0455 23.5984 16.1299 22.9219 15.4547C22.2453 14.7796 21.3277 14.4003 20.3709 14.4003H20.4431ZM37.2785 21.6003C36.0864 21.6145 34.9169 21.2748 33.9187 20.6243C32.9204 19.9737 32.1386 19.0417 31.6724 17.9467C31.2062 16.8517 31.0768 15.6431 31.3006 14.4745C31.5244 13.306 32.0913 12.2301 32.9292 11.3838C33.7672 10.5375 34.8383 9.95886 36.0066 9.72146C37.1749 9.48405 38.3875 9.59859 39.4904 10.0505C40.5932 10.5025 41.5366 11.2714 42.2005 12.2596C42.8644 13.2477 43.219 14.4106 43.2191 15.6003C43.2191 17.1916 42.5856 18.7177 41.458 19.8429C40.3304 20.9681 38.8011 21.6003 37.2064 21.6003H37.2785ZM37.2785 12.0003C36.5621 11.986 35.8577 12.185 35.255 12.5717C34.6523 12.9585 34.1787 13.5156 33.8946 14.172C33.6104 14.8285 33.5286 15.5545 33.6595 16.2575C33.7905 16.9605 34.1283 17.6086 34.6298 18.1193C35.1313 18.63 35.7739 18.9801 36.4756 19.1249C37.1773 19.2698 37.9064 19.2028 38.5698 18.9326C39.2332 18.6624 39.8009 18.2011 40.2006 17.6076C40.6003 17.0142 40.8139 16.3154 40.814 15.6003C40.814 14.6455 40.4339 13.7299 39.7574 13.0547C39.0808 12.3796 38.1632 12.0003 37.2064 12.0003H37.2785Z" fill="#E28743"/>
</svg>
