<svg width="353" height="45" viewBox="0 0 353 45" fill="none" xmlns="http://www.w3.org/2000/svg">
<rect width="275" height="45" rx="8" fill="white"/>
<path d="M258.4 9.8999L235.8 21.9999C235.1 22.3999 235.1 23.4999 235.9 23.7999L256.7 32.4999C257.3 32.7999 258 32.2999 258.1 31.6999L259.8 10.8999C259.9 9.9999 259.1 9.4999 258.4 9.8999Z" stroke="#E28743" stroke-width="2" stroke-miterlimit="10" stroke-linecap="round" stroke-linejoin="round"/>
<path d="M258 11L245 27V34.3C245 35.2 246.2 35.7 246.8 35L251 30" stroke="#E28743" stroke-width="2" stroke-miterlimit="10" stroke-linecap="round" stroke-linejoin="round"/>
<rect x="308" width="45" height="45" rx="22.5" fill="white"/>
<path d="M331.261 30.614C330.221 31.5889 328.843 32.1212 327.418 32.0982C325.992 32.0752 324.632 31.4989 323.624 30.4909C322.616 29.483 322.04 28.1226 322.017 26.6974C321.994 25.2722 322.526 23.8939 323.501 22.854L332.261 14.104C332.782 13.5874 333.444 13.2362 334.163 13.0947C334.883 12.9532 335.629 13.0277 336.306 13.3088C336.984 13.5898 337.563 14.065 337.971 14.6744C338.38 15.2839 338.599 16.0005 338.601 16.734C338.6 17.2219 338.503 17.7047 338.314 18.1545C338.125 18.6043 337.849 19.012 337.501 19.354L329.171 27.674C328.91 27.8816 328.583 27.9864 328.25 27.9686C327.918 27.9507 327.603 27.8115 327.367 27.5772C327.13 27.343 326.987 27.03 326.966 26.6976C326.945 26.3653 327.046 26.0366 327.251 25.774L335.591 17.434L334.171 16.024L325.831 24.364C325.229 24.9996 324.899 25.8449 324.911 26.7201C324.923 27.5953 325.276 28.4314 325.895 29.0503C326.514 29.6692 327.35 30.0222 328.225 30.0341C329.1 30.046 329.945 29.7159 330.581 29.114L338.931 20.774C340.005 19.7012 340.609 18.2457 340.61 16.7276C340.611 15.2095 340.009 13.7532 338.936 12.679C337.863 11.6049 336.408 11.0009 334.889 11C333.371 10.9991 331.915 11.6012 330.841 12.674L322.081 21.444C320.726 22.8584 319.979 24.7472 320 26.7056C320.022 28.664 320.809 30.5363 322.194 31.9211C323.579 33.306 325.451 34.0934 327.409 34.1145C329.368 34.1356 331.256 33.3888 332.671 32.034L340.591 24.104L339.181 22.674L331.261 30.614Z" fill="#E28743"/>
</svg>
