<svg width="40" height="51" viewBox="0 0 40 51" fill="none" xmlns="http://www.w3.org/2000/svg">
<path fill-rule="evenodd" clip-rule="evenodd" d="M18.8889 35.7277V40.6281C18.8889 41.1403 19.327 41.5556 19.8333 41.5556C20.3549 41.5556 20.7778 41.1251 20.7778 40.6281V35.7277C21.8782 35.3387 22.6667 34.2892 22.6667 33.0556C22.6667 31.4907 21.3981 30.2222 19.8333 30.2222C18.2685 30.2222 17 31.4907 17 33.0556C17 34.2892 17.7884 35.3387 18.8889 35.7277ZM17 36.8337V40.6079C17 42.1745 18.2576 43.4444 19.8333 43.4444C21.3981 43.4444 22.6667 42.1766 22.6667 40.6079V36.8337C23.8136 35.9722 24.5556 34.6005 24.5556 33.0556C24.5556 30.4475 22.4413 28.3333 19.8333 28.3333C17.2253 28.3333 15.1111 30.4475 15.1111 33.0556C15.1111 34.6005 15.853 35.9722 17 36.8337ZM5.66667 20.7778V14.1652C5.66667 6.34044 12.0093 0 19.8333 0C27.6414 0 34 6.34199 34 14.1652V20.7778C37.1339 20.7867 39.6667 23.3284 39.6667 26.4623V45.3154C39.6667 48.4753 37.1222 51 33.9834 51H5.68327C2.54167 51 0 48.4549 0 45.3154V26.4623C0 23.3081 2.53552 20.7867 5.66667 20.7778ZM7.55556 20.7778V14.1543C7.55556 7.3821 13.0525 1.88889 19.8333 1.88889C26.6004 1.88889 32.1111 7.38028 32.1111 14.1543V20.7778H30.2222V14.1838C30.2222 8.43672 25.5593 3.77778 19.8333 3.77778C14.0957 3.77778 9.44444 8.42709 9.44444 14.1838V20.7778H7.55556ZM11.3333 20.7778V14.1683C11.3333 9.46191 15.1389 5.66667 19.8333 5.66667C24.5182 5.66667 28.3333 9.47297 28.3333 14.1683V20.7778H11.3333ZM5.6618 22.6667C3.57808 22.6667 1.88889 24.3611 1.88889 26.4555V45.3223C1.88889 47.4148 3.57175 49.1111 5.6618 49.1111H34.0049C36.0886 49.1111 37.7778 47.4167 37.7778 45.3223V26.4555C37.7778 24.363 36.0949 22.6667 34.0049 22.6667H5.6618Z" fill="#E28743"/>
</svg>
