<svg width="38" height="30" viewBox="0 0 38 30" fill="none" xmlns="http://www.w3.org/2000/svg">
<path d="M1.1875 2.5H36.8125C37.468 2.5 38 1.94125 38 1.25C38 0.55875 37.468 0 36.8125 0H1.1875C0.532 0 0 0.55875 0 1.25C0 1.94125 0.530813 2.5 1.1875 2.5Z" fill="white"/>
<path d="M1.1875 30H36.8125C37.468 30 38 29.4412 38 28.75C38 28.0588 37.468 27.5 36.8125 27.5H1.1875C0.532 27.5 0 28.0588 0 28.75C0 29.4412 0.530813 30 1.1875 30Z" fill="white"/>
<path d="M1.1875 16.25H36.8125C37.468 16.25 38 15.6912 38 15C38 14.3088 37.468 13.75 36.8125 13.75H19H1.1875C0.532 13.75 0 14.3088 0 15C0 15.6912 0.530813 16.25 1.1875 16.25Z" fill="white"/>
</svg>
