<svg width="60" height="60" viewBox="0 0 60 60" fill="none" xmlns="http://www.w3.org/2000/svg">
<path d="M30 0C13.4582 0 0 13.4582 0 30C0 46.5418 13.4582 60 30 60C46.5418 60 60 46.5431 60 30C60 13.4569 46.5418 0 30 0ZM42.6981 43.4843C42.3213 44.0502 41.7006 44.3553 41.0683 44.3553C40.6954 44.3553 40.3186 44.2496 39.9848 44.0267C36.7604 41.8767 31.2921 40.4424 26.7287 40.4437C21.8862 40.4463 18.2563 41.6354 18.2198 41.6472C17.1976 41.994 16.0881 41.436 15.7464 40.4111C15.4048 39.3863 15.959 38.2781 16.9838 37.9378C17.1559 37.8804 21.2591 36.5361 26.7287 36.5335C31.2921 36.5309 37.6392 37.7617 42.1557 40.7723C43.0553 41.3721 43.2978 42.5859 42.6981 43.4843ZM46.5992 35.4787C46.1754 36.1593 45.444 36.5335 44.6969 36.5335C44.2927 36.5335 43.8833 36.4253 43.5156 36.1945C37.6692 32.5516 31.6611 31.781 26.4849 31.8267C20.6411 31.8788 15.9681 32.9936 15.8886 33.0171C14.706 33.3535 13.4621 32.6624 13.1244 31.4746C12.7867 30.2842 13.4791 29.0469 14.6682 28.7105C15.0293 28.6075 19.6932 27.4601 26.0781 27.4067C31.8997 27.3584 39.1542 28.202 45.8847 32.3951C46.9316 33.0471 47.2537 34.4291 46.5992 35.4787ZM50.4911 26.1172C50.0048 26.9438 49.1338 27.4041 48.2394 27.4041C47.7909 27.4041 47.3371 27.288 46.9212 27.0455C40.1073 23.0453 31.8228 22.1965 26.0728 22.1887C26.0455 22.1887 26.0181 22.1887 25.9907 22.1887C19.0373 22.1887 13.6825 23.4117 13.629 23.4247C12.2235 23.7468 10.8245 22.8784 10.4985 21.4755C10.1725 20.0739 11.0422 18.6736 12.4438 18.3463C12.685 18.2902 18.4063 16.9734 25.9907 16.9734C26.0207 16.9734 26.0507 16.9734 26.0807 16.9734C32.476 16.9825 41.7411 17.9551 49.5628 22.5473C50.804 23.2774 51.22 24.8759 50.4911 26.1172Z" fill="white"/>
</svg>
