<svg width="45" height="45" viewBox="0 0 45 45" fill="none" xmlns="http://www.w3.org/2000/svg">
<rect width="45" height="45" rx="22.5" fill="#6FB84D" fill-opacity="0.56"/>
<path d="M32.3036 13.945C31.766 13.3284 31.1278 12.8392 30.4253 12.5055C29.7228 12.1718 28.9699 12 28.2095 12C27.4491 12 26.6961 12.1718 25.9936 12.5055C25.2912 12.8392 24.6529 13.3284 24.1153 13.945L22.9997 15.224L21.8841 13.945C20.7983 12.7 19.3256 12.0006 17.79 12.0006C16.2544 12.0006 14.7817 12.7 13.6958 13.945C12.61 15.1899 12 16.8784 12 18.6389C12 20.3995 12.61 22.088 13.6958 23.3329L14.8115 24.612L22.9997 34L31.188 24.612L32.3036 23.3329C32.8414 22.7166 33.268 21.9849 33.5591 21.1794C33.8502 20.374 34 19.5108 34 18.6389C34 17.7671 33.8502 16.9039 33.5591 16.0985C33.268 15.293 32.8414 14.5613 32.3036 13.945Z" stroke="white" stroke-width="2" stroke-linecap="round" stroke-linejoin="round"/>
</svg>
