<svg width="27" height="27" viewBox="0 0 27 27" fill="none" xmlns="http://www.w3.org/2000/svg">
<path d="M25.9491 8.26877C25.2715 6.65517 24.2859 5.18853 23.0471 3.95058C21.8119 2.71048 20.3447 1.72452 18.7288 1.04869C17.0734 0.352991 15.2948 -0.00362315 13.4986 2.77513e-05H13.4382C11.6112 0.00906792 9.84468 0.370675 8.18079 1.08183C6.57872 1.76459 5.12531 2.7523 3.9018 3.98976C2.67496 5.22493 1.70061 6.68644 1.03303 8.29288C0.340036 9.96339 -0.0111046 11.7553 0.000267646 13.5633C0.00932692 15.6546 0.510607 17.7308 1.44673 19.5871V24.1674C1.44673 24.9328 2.0688 25.5536 2.8328 25.5536H7.4168C9.28565 26.4946 11.3479 26.9898 13.4412 27H13.5046C15.3104 27 17.0589 26.6504 18.7077 25.9664C20.3154 25.2986 21.7771 24.3242 23.0108 23.0977C24.255 21.8652 25.2334 20.4248 25.9189 18.8186C26.6285 17.1553 26.9909 15.3864 26.9999 13.5603C27.006 11.7251 26.6496 9.94421 25.9491 8.26877ZM7.47115 14.9464C6.67393 14.9464 6.02469 14.2986 6.02469 13.5C6.02469 12.7015 6.67393 12.0536 7.47115 12.0536C8.26837 12.0536 8.91761 12.7015 8.91761 13.5C8.91761 14.2986 8.27139 14.9464 7.47115 14.9464ZM13.4986 14.9464C12.7014 14.9464 12.0521 14.2986 12.0521 13.5C12.0521 12.7015 12.7014 12.0536 13.4986 12.0536C14.2958 12.0536 14.9451 12.7015 14.9451 13.5C14.9451 14.2986 14.2958 14.9464 13.4986 14.9464ZM19.526 14.9464C18.7288 14.9464 18.0796 14.2986 18.0796 13.5C18.0796 12.7015 18.7288 12.0536 19.526 12.0536C20.3232 12.0536 20.9725 12.7015 20.9725 13.5C20.9725 14.2986 20.3232 14.9464 19.526 14.9464Z" fill="white"/>
</svg>
