<svg width="30" height="30" viewBox="0 0 30 30" fill="none" xmlns="http://www.w3.org/2000/svg">
<path d="M15.0317 30C11.045 30 7.22166 28.4197 4.40267 25.6066C1.58369 22.7936 0 18.9783 0 15.0001C0 11.0219 1.58369 7.2066 4.40267 4.39358C7.22166 1.58055 11.045 0.000212248 15.0317 0.000212248C17.4069 -0.0120712 19.7545 0.508952 21.9007 1.5247C24.0468 2.54045 25.9365 4.02491 27.4298 5.86817C30.7488 10.1401 30.388 13.5001 28.945 15.2161C28.4728 15.8322 27.7988 16.2634 27.0406 16.4344C26.2824 16.6055 25.4882 16.5056 24.7962 16.1521C22.8121 15.1081 21.1886 15.7081 20.5152 16.8481C19.8418 17.9881 20.3228 19.9321 22.9203 21.3601C23.5504 21.7528 24.0332 22.3418 24.2941 23.036C24.5549 23.7301 24.5793 24.4907 24.3633 25.2C23.7621 27.6 20.9962 30 15.0317 30ZM15.0317 1.2002C11.364 1.2002 7.84646 2.65412 5.25299 5.2421C2.65953 7.83008 1.20253 11.3401 1.20253 15.0001C1.20253 18.6601 2.65953 22.1701 5.25299 24.7581C7.84646 27.3461 11.364 28.8 15.0317 28.8C20.3108 28.8 22.7159 26.808 23.2089 24.948C23.3648 24.4807 23.3569 23.9744 23.1864 23.5121C23.016 23.0499 22.6932 22.6591 22.2709 22.4041C19.0361 20.5801 18.5431 17.9521 19.457 16.2721C20.3709 14.5921 22.6798 13.6801 25.3494 15.0721C25.803 15.289 26.3183 15.3405 26.806 15.2177C27.2936 15.095 27.7228 14.8057 28.019 14.4001C29.1133 13.2001 29.3659 10.3081 26.4197 6.60017C25.0363 4.91965 23.2985 3.56437 21.3301 2.63097C19.3616 1.69757 17.211 1.20904 15.0317 1.2002ZM13.8291 26.4C13.2331 26.4072 12.6483 26.2373 12.1492 25.912C11.6501 25.5868 11.2591 25.1208 11.0261 24.5733C10.793 24.0257 10.7283 23.4214 10.8402 22.8372C10.9521 22.2529 11.2355 21.715 11.6545 21.2918C12.0734 20.8686 12.609 20.5793 13.1932 20.4606C13.7773 20.3419 14.3836 20.3992 14.935 20.6252C15.4865 20.8511 15.9582 21.2356 16.2901 21.7297C16.6221 22.2238 16.7994 22.8052 16.7994 23.4C16.7994 24.1957 16.4827 24.9587 15.9189 25.5214C15.3551 26.084 14.5904 26.4 13.7931 26.4H13.8291ZM13.8291 21.6001C13.4709 21.5929 13.1187 21.6924 12.8174 21.8858C12.516 22.0791 12.2792 22.3577 12.1371 22.6859C11.9951 23.0141 11.9542 23.3771 12.0196 23.7286C12.0851 24.0801 12.254 24.4042 12.5048 24.6595C12.7555 24.9149 13.0768 25.0899 13.4277 25.1624C13.7785 25.2348 14.143 25.2013 14.4748 25.0662C14.8065 24.9311 15.0903 24.7004 15.2902 24.4037C15.49 24.107 15.5968 23.7576 15.5969 23.4C15.5969 22.9227 15.4068 22.4648 15.0685 22.1273C14.7303 21.7897 14.2715 21.6001 13.7931 21.6001H13.8291ZM7.81647 20.4001C7.22039 20.4072 6.63564 20.2373 6.13652 19.9121C5.63741 19.5868 5.24647 19.1208 5.01339 18.5733C4.78031 18.0258 4.7156 17.4215 4.82749 16.8372C4.93939 16.2529 5.22283 15.715 5.6418 15.2918C6.06077 14.8687 6.59636 14.5794 7.18049 14.4607C7.76463 14.342 8.37094 14.3992 8.92238 14.6252C9.47382 14.8512 9.94549 15.2356 10.2775 15.7297C10.6094 16.2238 10.7867 16.8052 10.7867 17.4001C10.7867 18.1957 10.47 18.9588 9.90619 19.5214C9.3424 20.084 8.57772 20.4001 7.78039 20.4001H7.81647ZM7.81647 15.6001C7.45826 15.5929 7.10603 15.6924 6.80469 15.8858C6.50335 16.0792 6.26655 16.3577 6.12448 16.686C5.9824 17.0142 5.94149 17.3772 6.00697 17.7287C6.07244 18.0802 6.24133 18.4042 6.4921 18.6596C6.74287 18.9149 7.06416 19.09 7.41501 19.1624C7.76586 19.2348 8.13038 19.2013 8.46209 19.0662C8.79379 18.9311 9.07767 18.7005 9.27751 18.4037C9.47736 18.107 9.58412 17.7576 9.58419 17.4001C9.58419 16.9227 9.39415 16.4649 9.05587 16.1273C8.71759 15.7897 8.25879 15.6001 7.78039 15.6001H7.81647ZM10.2215 12.0001C9.62546 12.0073 9.0407 11.8374 8.54159 11.5121C8.04248 11.1869 7.65154 10.7209 7.41846 10.1734C7.18537 9.62585 7.12067 9.02155 7.23256 8.43726C7.34445 7.85297 7.6279 7.31507 8.04687 6.8919C8.46584 6.46874 9.00142 6.17942 9.58556 6.06072C10.1697 5.94202 10.776 5.99929 11.3274 6.22525C11.8789 6.45122 12.3506 6.83567 12.6825 7.32977C13.0145 7.82386 13.1918 8.40528 13.1918 9.00015C13.1918 9.79579 12.8751 10.5588 12.3113 11.1215C11.7475 11.6841 10.9828 12.0001 10.1855 12.0001H10.2215ZM10.2215 7.20016C9.86333 7.19301 9.5111 7.29247 9.20976 7.48586C8.90842 7.67925 8.67162 7.9578 8.52954 8.28601C8.38747 8.61422 8.34656 8.97722 8.41203 9.32872C8.47751 9.68022 8.64639 10.0043 8.89716 10.2597C9.14793 10.515 9.46922 10.69 9.82008 10.7625C10.1709 10.8349 10.5354 10.8014 10.8672 10.6663C11.1989 10.5312 11.4827 10.3005 11.6826 10.0038C11.8824 9.70707 11.9892 9.35767 11.9893 9.00015C11.9893 8.52276 11.7992 8.06493 11.4609 7.72737C11.1227 7.3898 10.6639 7.20016 10.1855 7.20016H10.2215ZM18.6393 10.8001C18.0432 10.8073 17.4584 10.6374 16.9593 10.3121C16.4602 9.98687 16.0693 9.52087 15.8362 8.97336C15.6031 8.42586 15.5384 7.82156 15.6503 7.23727C15.7622 6.65298 16.0456 6.11507 16.4646 5.69191C16.8836 5.26875 17.4192 4.97943 18.0033 4.86073C18.5874 4.74203 19.1937 4.7993 19.7452 5.02526C20.2966 5.25123 20.7683 5.63568 21.1003 6.12978C21.4322 6.62387 21.6095 7.20529 21.6095 7.80016C21.6095 8.5958 21.2928 9.35886 20.729 9.92146C20.1652 10.4841 19.4005 10.8001 18.6032 10.8001H18.6393ZM18.6393 6.00017C18.2811 5.99302 17.9288 6.09248 17.6275 6.28587C17.3262 6.47925 17.0894 6.75781 16.9473 7.08602C16.8052 7.41423 16.7643 7.77723 16.8298 8.12873C16.8952 8.48023 17.0641 8.80431 17.3149 9.05966C17.5657 9.31501 17.887 9.49005 18.2378 9.56247C18.5887 9.63489 18.9532 9.60141 19.2849 9.46629C19.6166 9.33118 19.9005 9.10055 20.1003 8.80382C20.3002 8.50708 20.4069 8.15768 20.407 7.80016C20.407 7.32277 20.217 6.86494 19.8787 6.52737C19.5404 6.18981 19.0816 6.00017 18.6032 6.00017H18.6393Z" fill="white"/>
</svg>
