<svg width="51" height="50" viewBox="0 0 51 50" fill="none" xmlns="http://www.w3.org/2000/svg">
<path d="M47.674 0H10.0366C8.70569 0 7.42926 0.526784 6.48815 1.46447C5.54703 2.40215 5.01832 3.67392 5.01832 5V12.5H0V17.5H5.01832V22.5H0V27.5H5.01832V32.5H0V37.5H5.01832V45C5.01832 46.3261 5.54703 47.5979 6.48815 48.5355C7.42926 49.4732 8.70569 50 10.0366 50H47.674C48.3395 50 48.9777 49.7366 49.4482 49.2678C49.9188 48.7989 50.1832 48.163 50.1832 47.5V2.5C50.1832 1.83696 49.9188 1.20107 49.4482 0.732233C48.9777 0.263392 48.3395 0 47.674 0ZM27.6007 7.4975C31.7358 7.4975 35.1282 10.875 35.1282 14.9975C35.1209 16.9846 34.3256 18.8883 32.9156 20.2937C31.5056 21.699 29.5951 22.4921 27.6007 22.5C23.4682 22.5 20.0733 19.1175 20.0733 14.9975C20.0733 10.875 23.4682 7.4975 27.6007 7.4975ZM42.6557 40H12.5458V38.125C12.5458 32.5775 19.3331 26.875 27.6007 26.875C35.8684 26.875 42.6557 32.5775 42.6557 38.125V40Z" fill="#5FA6BC"/>
</svg>
