<svg width="206" height="206" viewBox="0 0 206 206" fill="none" xmlns="http://www.w3.org/2000/svg">
<g clip-path="url(#clip0_83_638)">
<path d="M184.542 188.833H21.4583C9.6305 188.833 0 179.211 0 167.375V107.292C0 106.691 0.12875 106.081 0.377667 105.532L34.4449 29.827C37.9126 22.1364 45.5947 17.1666 54.0149 17.1666H151.985C160.405 17.1666 168.087 22.1364 171.555 29.827L205.622 105.532C205.871 106.081 206 106.691 206 107.292V167.375C206 179.211 196.369 188.833 184.542 188.833ZM8.58333 108.21V167.375C8.58333 174.473 14.3599 180.25 21.4583 180.25H184.542C191.64 180.25 197.417 174.473 197.417 167.375V108.21L163.727 33.3376C161.65 28.737 157.041 25.75 151.985 25.75H54.0149C48.9593 25.75 44.3501 28.737 42.2729 33.3462L8.58333 108.21Z" fill="#E28743"/>
<path d="M144.26 145.917H61.7398C56.401 145.917 51.56 142.561 49.6888 137.565L40.9853 114.364C40.3673 112.699 38.7537 111.583 36.9683 111.583H6.43742C4.06842 111.583 2.14575 109.661 2.14575 107.292C2.14575 104.923 4.06842 103 6.43742 103H36.9683C42.3072 103 47.1482 106.356 49.0279 111.352L57.7228 134.552C58.3494 136.217 59.9631 137.333 61.7398 137.333H144.251C146.037 137.333 147.65 136.217 148.268 134.552L156.963 111.352C158.852 106.356 163.693 103 169.032 103H201.708C204.077 103 206 104.923 206 107.292C206 109.661 204.077 111.583 201.708 111.583H169.032C167.246 111.583 165.633 112.699 165.015 114.364L156.32 137.565C154.44 142.561 149.59 145.917 144.26 145.917Z" fill="#E28743"/>
</g>
<defs>
<clipPath id="clip0_83_638">
<rect width="206" height="206" fill="white"/>
</clipPath>
</defs>
</svg>
