<svg width="39" height="29" viewBox="0 0 39 29" fill="none" xmlns="http://www.w3.org/2000/svg">
<g clip-path="url(#clip0_114_2017)">
<path d="M34.1251 0H4.87507C3.58214 0 2.34217 0.509225 1.42793 1.41565C0.513688 2.32208 7.33733e-05 3.55145 7.33733e-05 4.83333V24.1667C-0.0030906 24.7117 0.0960985 25.2526 0.292573 25.7617C0.677621 26.8459 1.43755 27.7599 2.43757 28.3415C3.17869 28.7669 4.01871 28.9939 4.87507 29H34.1251C34.9382 28.9963 35.7378 28.7929 36.4524 28.4081C37.1669 28.0233 37.7743 27.469 38.2201 26.7948C38.7247 26.0091 38.9951 25.0981 39.0001 24.1667V4.83333C39.0001 3.55145 38.4865 2.32208 37.5722 1.41565C36.658 0.509225 35.418 0 34.1251 0V0ZM20.1094 25.7798H4.87507C4.70197 25.7781 4.53061 25.7454 4.36929 25.6831L13.193 13.7448L20.4263 20.9102L22.7176 23.1819L25.3196 25.7798H20.1094ZM35.7521 24.1667C35.7505 24.594 35.5786 25.0034 35.2738 25.3056C34.969 25.6077 34.5561 25.7782 34.1251 25.7798H29.9326L25.0576 20.9102L29.2135 16.8381L35.7826 24.0881L35.7521 24.1667ZM35.7521 19.2548L30.4688 13.4185C30.3215 13.2592 30.144 13.1302 29.9464 13.039C29.7488 12.9477 29.5349 12.896 29.3171 12.8869C29.0966 12.8765 28.8763 12.9132 28.6713 12.9945C28.4663 13.0758 28.2813 13.1998 28.1288 13.3581L22.7541 18.6385L14.1559 10.1319C13.9847 9.97173 13.7824 9.84788 13.5613 9.76789C13.3402 9.6879 13.105 9.65346 12.8701 9.66667C12.6367 9.68826 12.4104 9.758 12.2057 9.87141C12.0011 9.98482 11.8226 10.1394 11.6818 10.3252L3.24804 21.75V4.83333C3.24965 4.406 3.42158 3.99662 3.72636 3.69444C4.03114 3.39226 4.44405 3.2218 4.87507 3.22021H34.1251C34.5561 3.2218 34.969 3.39226 35.2738 3.69444C35.5786 3.99662 35.7505 4.406 35.7521 4.83333V19.2548Z" fill="white"/>
<path d="M22.748 14.5C24.5418 14.5 25.9959 13.0582 25.9959 11.2798C25.9959 9.50131 24.5418 8.05957 22.748 8.05957C20.9542 8.05957 19.5 9.50131 19.5 11.2798C19.5 13.0582 20.9542 14.5 22.748 14.5Z" fill="white"/>
</g>
<defs>
<clipPath id="clip0_114_2017">
<rect width="39" height="29" fill="white"/>
</clipPath>
</defs>
</svg>
