<svg width="44" height="44" viewBox="0 0 44 44" fill="none" xmlns="http://www.w3.org/2000/svg">
<ellipse cx="22" cy="22" rx="22" ry="22" fill="#5FA6BC"/>
<path d="M34.9491 16.2688C34.2715 14.6552 33.2859 13.1885 32.0471 11.9506C30.8119 10.7105 29.3447 9.72452 27.7288 9.04869C26.0734 8.35299 24.2948 7.99638 22.4986 8.00003H22.4382C20.6112 8.00907 18.8447 8.37067 17.1808 9.08183C15.5787 9.76459 14.1253 10.7523 12.9018 11.9898C11.675 13.2249 10.7006 14.6864 10.033 16.2929C9.34004 17.9634 8.9889 19.7553 9.00027 21.5633C9.00933 23.6546 9.51061 25.7308 10.4467 27.5871V32.1674C10.4467 32.9328 11.0688 33.5536 11.8328 33.5536H16.4168C18.2856 34.4946 20.3479 34.9898 22.4412 35H22.5046C24.3104 35 26.0589 34.6504 27.7077 33.9664C29.3154 33.2986 30.7771 32.3242 32.0108 31.0977C33.255 29.8652 34.2334 28.4248 34.9189 26.8186C35.6285 25.1553 35.9909 23.3864 35.9999 21.5603C36.006 19.7251 35.6496 17.9442 34.9491 16.2688ZM16.4712 22.9464C15.6739 22.9464 15.0247 22.2986 15.0247 21.5C15.0247 20.7015 15.6739 20.0536 16.4712 20.0536C17.2684 20.0536 17.9176 20.7015 17.9176 21.5C17.9176 22.2986 17.2714 22.9464 16.4712 22.9464ZM22.4986 22.9464C21.7014 22.9464 21.0521 22.2986 21.0521 21.5C21.0521 20.7015 21.7014 20.0536 22.4986 20.0536C23.2958 20.0536 23.9451 20.7015 23.9451 21.5C23.9451 22.2986 23.2958 22.9464 22.4986 22.9464ZM28.526 22.9464C27.7288 22.9464 27.0796 22.2986 27.0796 21.5C27.0796 20.7015 27.7288 20.0536 28.526 20.0536C29.3232 20.0536 29.9725 20.7015 29.9725 21.5C29.9725 22.2986 29.3232 22.9464 28.526 22.9464Z" fill="white"/>
</svg>
