<svg width="21" height="25" viewBox="0 0 21 25" fill="none" xmlns="http://www.w3.org/2000/svg">
<path d="M20.1865 17.6177C18.6115 16.2865 17.7083 14.3407 17.7083 12.2792V9.37502C17.7083 5.70939 14.9854 2.675 11.4583 2.16667V1.04167C11.4583 0.465626 10.9917 0 10.4167 0C9.84167 0 9.375 0.465626 9.375 1.04167V2.16667C5.84688 2.675 3.125 5.70939 3.125 9.37502V12.2792C3.125 14.3407 2.22188 16.2865 0.6375 17.6261C0.232292 17.9729 0 18.4771 0 19.0105C0 20.0157 0.817709 20.8334 1.82292 20.8334H19.0104C20.0156 20.8334 20.8333 20.0157 20.8333 19.0105C20.8333 18.4771 20.6011 17.973 20.1865 17.6177Z" fill="white"/>
<path d="M10.4167 25C12.3031 25 13.8812 23.6552 14.2437 21.875H6.5896C6.9521 23.6552 8.53021 25 10.4167 25Z" fill="white"/>
</svg>
