<svg width="42" height="42" viewBox="0 0 42 42" fill="none" xmlns="http://www.w3.org/2000/svg">
<path d="M41.3613 38.2553L31.0076 27.8589C33.6698 24.8036 35.1283 20.9594 35.1283 16.9574C35.1283 7.60726 27.2489 0 17.5642 0C7.87944 0 0 7.60726 0 16.9574C0 26.3076 7.87944 33.9149 17.5642 33.9149C21.2 33.9149 24.6647 32.8562 27.6269 30.8463L38.0593 41.3216C38.4953 41.7588 39.0818 41.9999 39.7103 41.9999C40.3052 41.9999 40.8695 41.7809 41.2979 41.3828C42.2082 40.5372 42.2373 39.1348 41.3613 38.2553ZM17.5642 4.42368C24.7227 4.42368 30.5464 10.0462 30.5464 16.9574C30.5464 23.8687 24.7227 29.4912 17.5642 29.4912C10.4056 29.4912 4.58196 23.8687 4.58196 16.9574C4.58196 10.0462 10.4056 4.42368 17.5642 4.42368Z" fill="#5FA6BC"/>
</svg>
