<svg width="30" height="35" viewBox="0 0 30 35" fill="none" xmlns="http://www.w3.org/2000/svg">
<path d="M7.00115 9.00002C7.00115 4.59038 10.5903 1.00125 14.9999 1.00125C19.4096 1.00125 22.9987 4.59038 22.9987 9.00002C22.9987 13.4097 19.4096 16.9988 14.9999 16.9988C10.5903 16.9988 7.00115 13.4097 7.00115 9.00002Z" stroke="#E28743" stroke-width="2"/>
<path d="M17 21.0011C20.1953 21.0011 23.2059 22.2686 25.4844 24.5821L26.1978 23.8796L25.4844 24.5821C27.7526 26.8852 28.9985 29.919 28.9988 33.1321H1.00125C1.00157 29.919 2.24748 26.8852 4.51564 24.5821L3.80227 23.8796L4.51564 24.5821C6.79416 22.2686 9.80484 21.0011 13 21.0011H17Z" stroke="#E28743" stroke-width="2"/>
</svg>
