<svg width="44" height="44" viewBox="0 0 44 44" fill="none" xmlns="http://www.w3.org/2000/svg">
<ellipse cx="22" cy="22" rx="22" ry="22" fill="#5FA6BC"/>
<path d="M32.1865 26.6179C30.6115 25.2866 29.7083 23.3408 29.7083 21.2793V18.3751C29.7083 14.7095 26.9854 11.6751 23.4583 11.1668V10.0418C23.4583 9.46575 22.9917 9.00012 22.4167 9.00012C21.8417 9.00012 21.375 9.46575 21.375 10.0418V11.1668C17.8469 11.6751 15.125 14.7095 15.125 18.3751V21.2793C15.125 23.3408 14.2219 25.2866 12.6375 26.6262C12.2323 26.9731 12 27.4772 12 28.0106C12 29.0158 12.8177 29.8335 13.8229 29.8335H31.0104C32.0156 29.8335 32.8333 29.0158 32.8333 28.0106C32.8333 27.4772 32.6011 26.9731 32.1865 26.6179Z" fill="white"/>
<path d="M22.4167 34.0001C24.3031 34.0001 25.8812 32.6553 26.2437 30.8751H18.5896C18.9521 32.6553 20.5302 34.0001 22.4167 34.0001Z" fill="white"/>
</svg>
