<svg width="40" height="40" viewBox="0 0 40 40" fill="none" xmlns="http://www.w3.org/2000/svg">
<path d="M38.2015 24L36.0602 22.8333C33.7404 21.5 33.7404 18.3333 36.0602 17L38.2015 15.8333C39.986 14.8333 40.5213 12.8333 39.4506 11.3333L37.6662 8.5C36.5955 6.83333 34.4542 6.33333 32.8481 7.33333L30.7068 8.5C28.387 9.83333 25.3534 8.16667 25.3534 5.66667V3.33333C25.3534 1.5 23.7474 0 21.7845 0H18.2155C16.2526 0 14.6466 1.5 14.6466 3.33333V5.5C14.6466 8 11.613 9.66667 9.29322 8.33333L7.15187 7.33333C5.3674 6.33333 3.22605 7 2.33381 8.5L0.549351 11.3333C-0.34288 13 0.192459 15 1.79848 16L3.93983 17.1667C6.25963 18.3333 6.25963 21.6667 3.93983 22.8333L1.79848 24C0.0140122 25 -0.521327 27 0.549351 28.5L2.33381 31.3333C3.40449 33 5.54585 33.5 7.15187 32.5L9.29322 31.5C11.613 30.1667 14.6466 31.8333 14.6466 34.3333V36.6667C14.6466 38.5 16.2526 40 18.2155 40H21.7845C23.7474 40 25.3534 38.5 25.3534 36.6667V34.5C25.3534 32 28.387 30.3333 30.7068 31.6667L32.8481 32.8333C34.6326 33.8333 36.774 33.1667 37.6662 31.6667L39.4506 28.8333C40.3429 27 39.8075 25 38.2015 24ZM20 26.6667C16.0742 26.6667 12.8621 23.6667 12.8621 20C12.8621 16.3333 16.0742 13.3333 20 13.3333C23.9258 13.3333 27.1379 16.3333 27.1379 20C27.1379 23.6667 23.9258 26.6667 20 26.6667Z" fill="#5FA6BC"/>
</svg>
