<svg width="28" height="20" viewBox="0 0 28 20" fill="none" xmlns="http://www.w3.org/2000/svg">
<path d="M25.2 16.25C25.2 16.5816 25.0525 16.8995 24.7899 17.1339C24.5274 17.3684 24.1713 17.5001 23.8 17.5001C23.4287 17.5001 23.0726 17.3684 22.81 17.1339C22.5475 16.8995 22.4 16.5816 22.4 16.25V1.25C22.4 0.918482 22.2525 0.600539 21.99 0.366118C21.7274 0.131697 21.3713 0 21 0H1.4C1.0287 0 0.672601 0.131697 0.41005 0.366118C0.1475 0.600539 0 0.918482 0 1.25V17.5001C0 18.1631 0.294999 18.799 0.820101 19.2678C1.3452 19.7367 2.05739 20.0001 2.8 20.0001H23.8C26.1156 20.0001 28 18.3176 28 16.25V3.75001H25.2V16.25ZM14 3.75001H18.2V6.25002H14V3.75001ZM14 8.75003H18.2V11.25H14V8.75003ZM4.2 3.75001H11.2V11.25H4.2V3.75001ZM4.2 16.25V13.75H18.2V16.25H4.2Z" fill="white"/>
</svg>
