<svg width="30" height="30" viewBox="0 0 30 30" fill="none" xmlns="http://www.w3.org/2000/svg">
<g clip-path="url(#clip0_105_792)">
<path d="M23.125 24.375H6.875" stroke="white" stroke-width="2" stroke-linecap="round" stroke-linejoin="round"/>
<path d="M15 25.9375C14.8146 25.9375 14.6333 25.9925 14.4792 26.0955C14.325 26.1985 14.2048 26.3449 14.1339 26.5162C14.0629 26.6875 14.0443 26.876 14.0805 27.0579C14.1167 27.2398 14.206 27.4068 14.3371 27.5379C14.4682 27.669 14.6352 27.7583 14.8171 27.7945C14.999 27.8307 15.1875 27.8121 15.3588 27.7411C15.5301 27.6702 15.6765 27.55 15.7795 27.3958C15.8825 27.2417 15.9375 27.0604 15.9375 26.875C15.9377 26.7518 15.9135 26.6299 15.8665 26.516C15.8194 26.4022 15.7504 26.2988 15.6633 26.2117C15.5762 26.1246 15.4728 26.0556 15.359 26.0085C15.2451 25.9615 15.1232 25.9373 15 25.9375Z" fill="white"/>
<path d="M20.625 0.625H9.375C7.99429 0.625 6.875 1.74429 6.875 3.125V26.875C6.875 28.2557 7.99429 29.375 9.375 29.375H20.625C22.0057 29.375 23.125 28.2557 23.125 26.875V3.125C23.125 1.74429 22.0057 0.625 20.625 0.625Z" stroke="white" stroke-width="2" stroke-linecap="round" stroke-linejoin="round"/>
</g>
<defs>
<clipPath id="clip0_105_792">
<rect width="30" height="30" fill="white"/>
</clipPath>
</defs>
</svg>
