<svg width="107" height="107" viewBox="0 0 107 107" fill="none" xmlns="http://www.w3.org/2000/svg">
<path d="M53.5 0C37.9434 0 25.2871 12.6563 25.2871 28.2129C25.2871 43.7695 37.9434 56.4258 53.5 56.4258C69.0566 56.4258 81.7129 43.7695 81.7129 28.2129C81.7129 12.6563 69.0566 0 53.5 0Z" fill="#E28743"/>
<path d="M88.6023 74.8572C80.8782 67.0144 70.6386 62.6953 59.7695 62.6953H47.2305C36.3616 62.6953 26.1218 67.0144 18.3977 74.8572C10.7115 82.6615 6.47852 92.9631 6.47852 103.865C6.47852 105.596 7.88205 107 9.61328 107H97.3867C99.1179 107 100.521 105.596 100.521 103.865C100.521 92.9631 96.2885 82.6615 88.6023 74.8572Z" fill="#E28743"/>
</svg>
